<mxfile host="app.diagrams.net" modified="2024-05-06T05:44:54.604Z" agent="Mozilla/5.0 (Macintosh; Intel Mac OS X 10.15; rv:125.0) Gecko/20100101 Firefox/125.0" version="24.2.7" etag="EeKUT9dgV6tdDnh7jcWZ" type="github">
  <diagram name="Page-1" id="EtWwefUYyh61K62P7CDf">
    <mxGraphModel>
      <root>
        <mxCell id="0" />
        <mxCell id="1" parent="0" />
      </root>
    </mxGraphModel>
  </diagram>
</mxfile>
